<?xml version="1.0" standalone="no"?>
<!DOCTYPE svg PUBLIC "-//W3C//DTD SVG 20010904//EN"
 "http://www.w3.org/TR/2001/REC-SVG-20010904/DTD/svg10.dtd">
<svg version="1.0" xmlns="http://www.w3.org/2000/svg"
 width="1248.000000pt" height="933.000000pt" viewBox="0 0 1248.000000 933.000000"
 preserveAspectRatio="xMidYMid meet">
<metadata>
Created by potrace 1.16, written by Peter Selinger 2001-2019
</metadata>
<g transform="translate(0.000000,933.000000) scale(0.100000,-0.100000)"
fill="#000000" stroke="none">
<path d="M0 4665 l0 -4665 6240 0 6240 0 0 4665 0 4665 -6240 0 -6240 0 0
-4665z m6610 4480 c1287 -112 2454 -762 3232 -1800 437 -584 729 -1281 842
-2013 38 -243 49 -405 49 -687 0 -143 -5 -321 -12 -395 -63 -677 -276 -1341
-612 -1902 -214 -358 -406 -605 -689 -889 -485 -486 -1021 -827 -1670 -1063
-792 -288 -1685 -345 -2510 -160 -1067 240 -1987 836 -2642 1709 -495 662
-801 1464 -879 2305 -16 174 -16 616 0 790 78 841 384 1643 879 2305 314 418
720 802 1132 1070 640 416 1347 663 2085 729 208 19 583 19 795 1z"/>
<path d="M6060 8734 c-295 -13 -557 -51 -844 -124 -311 -78 -500 -148 -801
-294 -409 -199 -749 -442 -1084 -777 -267 -267 -442 -493 -661 -853 l-24 -40
46 32 c26 18 56 32 67 32 20 0 21 -5 21 -185 l0 -185 50 0 c47 0 50 -2 50 -25
l0 -25 -131 0 c-130 0 -130 0 -127 23 3 19 10 22 56 25 l52 3 0 155 c0 121 -3
154 -12 148 -7 -4 -27 -18 -45 -32 -18 -13 -36 -21 -41 -18 -11 7 -97 -158
-170 -329 -224 -523 -332 -1048 -332 -1620 0 -853 254 -1659 743 -2355 254
-362 617 -726 982 -985 579 -411 1267 -666 1990 -736 155 -15 595 -15 750 0
723 70 1413 326 1992 737 362 258 730 627 980 984 355 507 595 1093 693 1694
82 507 63 1095 -51 1575 -186 782 -544 1426 -1102 1982 -456 454 -979 778
-1593 988 -245 83 -645 167 -909 190 -136 12 -432 20 -545 15z m30 -269 l0
-185 50 0 c47 0 50 -2 50 -25 l0 -25 -130 0 -130 0 0 25 c0 24 3 25 55 25 l55
0 0 156 c0 168 3 162 -57 118 -39 -30 -43 -30 -43 0 0 17 14 33 53 59 28 20
62 36 75 36 l22 1 0 -185z m396 154 c33 -33 41 -87 20 -131 -10 -20 -58 -73
-108 -119 l-92 -84 109 -5 c105 -5 110 -6 113 -27 3 -23 3 -23 -137 -23 -140
0 -141 0 -141 23 0 33 30 72 124 161 73 69 86 86 86 113 0 47 -8 61 -44 73
-42 14 -82 -1 -98 -35 -8 -18 -19 -25 -40 -25 -26 0 -29 3 -23 23 9 27 43 66
70 78 11 5 46 7 78 6 46 -3 63 -9 83 -28z m-2308 -676 l2 -182 48 -3 c40 -3
47 -6 50 -25 3 -23 3 -23 -133 -23 -136 0 -136 0 -133 23 3 19 10 22 56 25
l52 3 0 155 0 155 -45 -31 -45 -31 0 25 c0 19 12 34 53 61 90 62 92 60 95
-152z m290 0 l2 -182 48 -3 c40 -3 47 -6 50 -25 3 -23 3 -23 -133 -23 -136 0
-136 0 -133 23 3 19 10 22 56 25 l52 3 0 155 0 155 -45 -31 -45 -31 0 25 c0
19 12 34 53 61 90 62 92 60 95 -152z m3702 2 l0 -185 50 0 c47 0 50 -2 50 -25
l0 -25 -130 0 -130 0 0 25 c0 24 3 25 55 25 l55 0 0 156 c0 168 3 162 -57 118
-39 -30 -43 -30 -43 0 0 17 14 33 53 59 28 20 62 36 75 36 l22 1 0 -185z
m-1725 135 c1043 -71 1994 -606 2591 -1457 272 -387 465 -836 558 -1298 50
-247 61 -370 61 -680 0 -310 -11 -433 -61 -680 -148 -733 -539 -1412 -1095
-1899 -1314 -1151 -3244 -1151 -4558 0 -266 233 -497 513 -682 826 -87 146
-206 391 -255 527 -21 57 -44 105 -50 108 -7 2 -95 -23 -196 -56 -101 -34
-196 -61 -211 -61 -39 0 -59 43 -31 70 10 10 107 46 214 81 107 34 196 63 198
64 1 1 -11 50 -27 107 -36 130 -75 324 -98 488 -25 182 -25 663 0 850 116 853
515 1608 1138 2154 698 611 1593 917 2504 856z m3185 -1325 c39 -20 50 -43 50
-102 0 -48 -1 -48 -102 -148 l-103 -100 108 -3 c106 -3 107 -3 107 -27 l0 -25
-140 0 c-120 0 -140 2 -140 15 0 30 28 71 86 125 32 30 72 69 90 86 56 53 55
123 -2 145 -37 13 -88 -5 -102 -36 -8 -17 -20 -25 -37 -25 -14 0 -25 5 -25 10
0 24 32 70 58 84 35 20 115 20 152 1z m-6481 -60 c48 -24 73 -90 73 -193 0
-141 -36 -203 -127 -217 -57 -8 -104 18 -132 75 -19 37 -23 61 -23 139 0 149
40 210 138 211 24 0 56 -7 71 -15z m-738 -1811 c47 -24 71 -88 71 -188 0 -163
-75 -248 -191 -216 -60 16 -93 72 -51 85 15 5 26 0 41 -19 53 -67 149 2 149
107 0 17 -1 17 -17 2 -36 -36 -95 -45 -143 -20 -82 42 -83 206 -2 249 36 20
105 20 143 0z m7766 -4 c34 -21 55 -72 46 -112 -7 -30 -42 -68 -62 -68 -9 -1
0 -9 20 -20 48 -25 66 -68 50 -120 -6 -21 -23 -48 -37 -59 -62 -49 -186 -31
-225 33 -26 43 -24 56 11 56 19 0 30 -5 30 -14 0 -23 50 -56 85 -56 64 0 103
57 75 110 -10 20 -59 40 -96 40 -19 0 -24 5 -24 25 0 23 4 25 40 25 65 0 98
48 69 101 -25 48 -120 43 -139 -7 -11 -28 -60 -35 -60 -8 0 76 137 123 217 74z
m-7216 -1958 c41 -46 40 -99 -2 -141 -20 -21 -25 -31 -15 -31 27 0 56 -50 56
-96 0 -114 -161 -165 -247 -79 -28 28 -33 40 -33 79 0 36 6 52 25 71 13 14 29
25 35 25 6 0 -2 14 -19 31 -38 38 -42 92 -10 133 30 38 54 46 123 43 52 -3 62
-7 87 -35z m6709 -102 l0 -140 30 0 c25 0 30 -4 30 -25 0 -21 -5 -25 -30 -25
-29 0 -30 -2 -30 -45 0 -41 -2 -45 -25 -45 -23 0 -25 4 -25 45 l0 45 -95 0
c-95 0 -95 0 -95 25 0 15 33 75 81 148 100 150 106 157 136 157 l23 0 0 -140z
m-1370 -1295 c0 -25 0 -25 -95 -25 l-95 0 0 -60 0 -59 28 5 c68 14 106 8 141
-22 56 -47 61 -146 10 -200 -29 -31 -90 -47 -142 -38 -45 7 -112 63 -105 86 9
25 39 19 67 -11 59 -63 161 -26 161 58 0 73 -74 112 -144 76 -15 -8 -39 -15
-53 -15 l-24 0 6 103 c4 56 8 108 10 115 3 9 36 12 120 12 l115 0 0 -25z
m-3880 -9 c0 -13 -21 -58 -46 -99 -53 -89 -84 -171 -91 -244 -6 -50 -7 -53
-34 -53 -34 0 -35 8 -14 98 15 61 55 150 101 224 13 21 24 40 24 43 0 3 -49 5
-110 5 -100 0 -110 2 -110 18 0 10 3 22 7 25 3 4 66 7 140 7 l133 0 0 -24z
m1880 -483 c23 -13 50 -50 50 -68 0 -15 -46 -1 -72 20 -16 14 -37 25 -47 25
-43 0 -91 -66 -91 -125 l0 -25 33 20 c38 24 78 25 121 5 99 -47 86 -218 -19
-253 -89 -29 -164 20 -185 123 -26 125 16 261 90 288 31 11 93 6 120 -10z"/>
<path d="M5620 7003 c-21 -8 -40 -34 -40 -56 0 -11 -8 -26 -17 -33 -17 -13
-17 -13 0 -14 14 0 17 -10 17 -64 0 -42 -4 -66 -12 -69 -7 -3 10 -5 37 -6 40
0 45 2 28 9 -20 8 -23 16 -23 70 l0 60 35 0 35 0 0 -64 c0 -72 13 -91 54 -80
31 7 35 24 6 24 -18 0 -20 7 -20 60 0 47 3 60 15 60 8 0 15 5 15 10 0 6 -6 10
-14 10 -7 0 -17 10 -20 23 l-7 22 -16 -22 c-20 -29 -83 -33 -83 -5 0 9 4 23 9
31 8 13 12 13 26 1 15 -13 17 -11 13 10 -3 25 -14 32 -38 23z"/>
<path d="M6133 6989 c14 -8 17 -25 17 -114 0 -90 -2 -104 -17 -108 -10 -3 5
-5 32 -5 28 0 44 2 38 5 -9 3 -13 37 -13 119 l0 114 -37 0 c-31 -1 -35 -3 -20
-11z"/>
<path d="M4710 6980 c0 -5 7 -10 15 -10 12 0 15 -17 15 -95 0 -79 -3 -96 -17
-104 -14 -8 -5 -10 37 -10 42 0 51 2 38 10 -21 12 -25 71 -5 87 9 8 22 -4 52
-43 35 -47 44 -54 75 -54 26 0 31 2 19 9 -8 5 -36 35 -62 68 l-46 59 37 36
c21 21 43 37 50 37 7 0 12 5 12 10 0 6 -16 10 -36 10 -27 0 -35 -4 -31 -14 3
-7 -14 -32 -39 -57 l-44 -43 0 43 c0 30 6 48 18 57 15 12 10 13 -35 14 -29 0
-53 -4 -53 -10z"/>
<path d="M5030 6983 c-71 -27 -91 -140 -34 -196 29 -29 92 -42 139 -29 22 6
31 15 33 35 4 31 -14 37 -23 8 -7 -23 -66 -36 -95 -21 -29 16 -40 43 -40 99 0
38 5 56 20 71 30 30 110 25 110 -6 0 -8 5 -14 11 -14 6 0 9 12 7 28 -3 26 -6
27 -58 29 -30 1 -62 -1 -70 -4z"/>
<path d="M5220 6970 c-38 -38 -25 -71 46 -109 55 -29 69 -62 35 -81 -27 -14
-69 -3 -76 21 -10 29 -27 23 -23 -8 3 -24 9 -29 44 -37 52 -11 94 8 107 47 12
38 -12 73 -69 97 -30 13 -44 25 -44 39 0 36 59 43 83 9 16 -23 16 -23 16 10 1
32 1 32 -49 32 -37 0 -55 -5 -70 -20z"/>
<path d="M5791 6964 c-12 -15 -19 -34 -16 -42 3 -7 5 -18 5 -23 0 -6 25 -21
55 -34 45 -20 55 -29 55 -50 0 -31 -30 -48 -63 -36 -13 5 -27 17 -30 25 -10
27 -29 18 -25 -11 3 -24 9 -29 43 -36 73 -16 126 27 111 88 -5 20 -20 32 -61
51 -39 17 -55 29 -55 43 0 35 62 43 82 11 18 -28 30 -25 26 8 -3 25 -7 27 -54
30 -46 3 -54 0 -73 -24z"/>
<path d="M6510 6970 c0 -15 5 -20 18 -18 9 2 17 10 17 18 0 8 -8 16 -17 18
-13 2 -18 -3 -18 -18z"/>
<path d="M6411 6932 c-14 -15 -19 -28 -12 -30 6 -2 11 -29 11 -67 0 -68 14
-91 50 -80 26 8 26 21 0 28 -17 4 -20 14 -20 61 0 49 2 56 20 56 11 0 20 5 20
10 0 6 -9 10 -19 10 -12 0 -21 8 -23 20 -3 18 -5 17 -27 -8z"/>
<path d="M5429 6919 c-59 -22 -63 -130 -6 -157 60 -29 107 6 107 77 0 68 -43
101 -101 80z m61 -38 c14 -28 12 -63 -6 -89 -18 -26 -27 -27 -48 -6 -16 15
-21 69 -10 98 9 22 51 20 64 -3z"/>
<path d="M6003 6920 c-29 -12 -43 -40 -43 -89 0 -31 6 -44 27 -61 54 -42 123
-3 123 70 0 63 -53 102 -107 80z m65 -77 c3 -45 0 -53 -19 -63 -30 -17 -52 7
-52 58 0 51 9 64 41 60 25 -3 27 -7 30 -55z"/>
<path d="M6633 6920 c-28 -12 -43 -40 -43 -83 0 -43 26 -75 67 -83 45 -9 83
30 83 84 0 65 -52 105 -107 82z m62 -79 c0 -39 -4 -57 -17 -64 -28 -18 -48 9
-48 63 0 54 5 62 40 58 23 -3 25 -7 25 -57z"/>
<path d="M6847 6923 c-4 -3 -28 -6 -54 -5 -27 0 -42 -2 -35 -5 8 -3 12 -28 12
-73 0 -45 -4 -70 -12 -73 -7 -3 7 -5 32 -5 25 0 39 2 33 5 -9 3 -13 27 -13 69
0 61 1 64 24 64 13 0 27 -7 30 -16 11 -29 7 -112 -6 -117 -7 -3 5 -5 27 -5 22
0 34 2 28 5 -9 3 -13 27 -13 68 0 44 -5 68 -16 79 -17 17 -27 20 -37 9z"/>
<path d="M6963 6920 c-48 -20 -34 -80 23 -94 15 -4 24 -14 24 -27 0 -29 -30
-36 -50 -11 -19 23 -30 19 -30 -9 0 -11 11 -20 30 -24 38 -8 67 1 81 26 15 30
2 58 -37 74 -40 17 -46 45 -9 45 14 0 25 -4 25 -10 0 -5 5 -10 10 -10 6 0 10
9 10 20 0 11 -6 20 -14 20 -8 0 -20 2 -28 4 -7 3 -23 1 -35 -4z"/>
<path d="M7199 6919 c-45 -17 -61 -76 -34 -129 18 -34 59 -46 101 -28 l29 12
-40 4 c-22 2 -45 8 -52 14 -14 11 -17 65 -7 92 8 21 54 20 70 -1 12 -16 13
-16 14 8 0 19 -6 28 -22 33 -27 7 -26 7 -59 -5z"/>
<path d="M7353 6920 c-29 -12 -43 -40 -43 -89 0 -31 6 -44 27 -61 54 -42 123
-3 123 70 0 63 -53 102 -107 80z m65 -77 c3 -45 0 -53 -19 -63 -30 -17 -52 7
-52 58 0 51 9 64 41 60 25 -3 27 -7 30 -55z"/>
<path d="M7551 6921 c-8 -5 -30 -7 -50 -4 -30 5 -34 3 -23 -8 7 -7 12 -39 12
-75 0 -41 -4 -64 -12 -67 -7 -3 7 -5 32 -5 25 0 39 2 33 5 -9 3 -13 27 -13 70
0 61 1 64 23 61 20 -3 22 -10 25 -62 2 -41 -1 -62 -10 -67 -8 -5 4 -9 32 -9
28 0 40 4 32 9 -9 5 -12 26 -10 67 3 55 4 59 28 59 24 0 25 -3 28 -62 2 -52 0
-62 -15 -66 -10 -3 2 -5 27 -5 25 0 39 2 33 5 -9 3 -13 28 -13 73 0 58 -3 71
-19 80 -13 7 -28 7 -45 0 -17 -6 -35 -6 -52 0 -30 12 -26 12 -43 1z"/>
<path d="M6228 6908 c7 -7 12 -39 12 -75 0 -75 10 -83 88 -76 38 4 50 9 43 16
-6 6 -11 42 -11 79 0 67 0 68 -27 68 -21 0 -24 -3 -15 -12 7 -7 12 -38 12 -71
0 -58 0 -58 -27 -55 -27 3 -28 5 -31 71 -3 65 -4 67 -29 67 -21 0 -24 -3 -15
-12z"/>
<path d="M6498 6908 c16 -16 16 -135 0 -141 -7 -3 7 -5 32 -5 25 0 39 2 33 5
-9 3 -13 29 -13 79 l0 74 -32 0 c-25 0 -29 -3 -20 -12z"/>
<path d="M7083 6784 c-8 -21 13 -42 28 -27 13 13 5 43 -11 43 -6 0 -13 -7 -17
-16z"/>
<path d="M8695 6688 c-16 -9 -1155 -891 -2107 -1631 l-128 -99 -61 31 c-34 17
-75 33 -93 37 -30 6 -40 24 -361 695 -181 379 -343 706 -359 726 -57 69 -167
93 -252 54 -50 -23 -112 -93 -120 -138 -17 -92 -12 -106 335 -826 l331 -688
-25 -74 c-15 -43 -25 -96 -25 -129 0 -114 64 -241 157 -312 131 -100 335 -100
466 0 126 96 186 269 142 412 l-15 49 33 26 c17 15 520 405 1117 868 596 463
1090 851 1097 864 47 84 -50 182 -132 135z"/>
<path d="M4049 3105 c-3 -5 -9 -22 -13 -37 -4 -19 -13 -28 -26 -28 -11 0 -20
-4 -20 -10 0 -5 9 -10 21 -10 15 0 19 -4 15 -16 -3 -9 -6 -20 -6 -25 0 -5 -7
-9 -15 -9 -8 0 -15 -4 -15 -10 0 -5 5 -10 11 -10 8 0 10 -12 6 -35 -4 -26 -2
-35 8 -35 8 0 15 13 17 33 2 25 8 33 27 35 22 4 24 1 18 -32 -4 -27 -2 -36 8
-36 8 0 15 13 17 33 2 24 8 33 26 35 28 4 29 22 1 22 -15 0 -19 4 -15 16 3 9
6 20 6 25 0 5 7 9 15 9 8 0 15 5 15 10 0 6 -4 10 -10 10 -5 0 -10 16 -10 36 0
41 -15 38 -23 -6 -5 -21 -12 -30 -26 -30 -16 0 -20 8 -23 38 -2 20 -6 33 -9
27z m43 -110 c-3 -19 -11 -25 -29 -25 -19 0 -24 4 -19 16 3 9 6 20 6 25 0 5
11 9 24 9 19 0 22 -4 18 -25z"/>
<path d="M4775 3100 c-8 -14 3 -30 21 -30 8 0 14 9 14 20 0 21 -24 28 -35 10z"/>
<path d="M5264 3100 c-37 -15 -64 -59 -64 -104 0 -86 60 -132 156 -119 40 5
44 8 44 34 0 33 -15 39 -23 10 -11 -44 -109 -33 -127 14 -29 77 4 155 65 155
43 0 65 -9 65 -26 0 -8 5 -14 10 -14 16 0 11 47 -6 54 -22 9 -95 6 -120 -4z"/>
<path d="M6583 3097 c14 -12 17 -31 17 -110 0 -83 -2 -96 -17 -100 -10 -3 7
-5 37 -5 30 0 47 2 38 5 -13 3 -18 15 -18 44 0 38 1 39 33 39 42 0 70 29 69
71 -1 50 -22 63 -105 67 -63 2 -70 1 -54 -11z m103 -15 c37 -24 21 -92 -21
-92 -23 0 -25 4 -25 50 0 41 3 50 18 50 9 0 22 -4 28 -8z"/>
<path d="M8045 3100 c-8 -14 3 -30 21 -30 8 0 14 9 14 20 0 21 -24 28 -35 10z"/>
<path d="M6235 3065 c-5 -11 -16 -25 -24 -32 -11 -8 -12 -12 -3 -13 8 0 12
-20 12 -65 0 -53 3 -66 19 -75 20 -10 51 -4 51 10 0 4 -9 10 -20 13 -17 4 -20
14 -20 61 0 49 2 56 20 56 11 0 20 5 20 10 0 6 -9 10 -19 10 -12 0 -21 8 -24
23 -3 21 -4 21 -12 2z"/>
<path d="M7180 3050 c-8 -6 -32 -10 -52 -10 -20 0 -44 -7 -52 -16 -18 -18 -21
-60 -5 -69 6 -4 7 -14 4 -24 -4 -9 -9 -37 -11 -64 -5 -44 -3 -48 23 -58 55
-21 123 11 123 57 0 29 -27 44 -80 44 -25 0 -39 4 -35 10 3 6 19 10 34 10 36
0 64 30 60 67 -2 15 0 34 5 41 11 18 4 23 -14 12z m-30 -35 c18 -21 4 -65 -20
-65 -27 0 -44 34 -30 60 13 24 33 26 50 5z m27 -151 c12 -33 -58 -59 -85 -32
-7 7 -8 17 -1 30 13 24 77 25 86 2z"/>
<path d="M8420 3050 c-8 -6 -32 -10 -52 -10 -29 0 -41 -6 -55 -26 -16 -25 -16
-29 -1 -55 14 -24 14 -29 2 -40 -11 -9 -12 -15 -3 -26 9 -10 9 -17 1 -25 -35
-35 12 -75 75 -63 40 7 63 29 63 60 0 29 -26 45 -74 45 -20 0 -36 5 -36 10 0
6 13 10 29 10 40 0 63 25 60 64 -2 17 1 37 5 44 11 18 4 23 -14 12z m-30 -34
c6 -8 10 -25 8 -38 -2 -17 -10 -23 -28 -23 -20 0 -26 6 -28 29 -5 40 25 59 48
32z m27 -152 c8 -21 -21 -44 -54 -44 -25 0 -39 21 -29 45 8 21 75 20 83 -1z"/>
<path d="M4168 3028 c15 -15 17 -208 2 -208 -5 0 -10 -4 -10 -10 0 -5 15 -10
34 -10 19 0 38 5 41 10 3 6 -1 10 -9 10 -11 0 -16 10 -16 31 0 26 3 29 20 24
46 -15 97 50 85 107 -11 46 -30 58 -98 58 -47 0 -58 -3 -49 -12z m100 -20 c17
-17 15 -84 -4 -102 -8 -9 -24 -16 -35 -16 -17 0 -19 7 -19 65 0 61 1 65 23 65
13 0 28 -5 35 -12z"/>
<path d="M4350 3020 c0 -24 6 -25 27 -5 21 21 37 14 41 -18 3 -24 0 -27 -25
-27 -35 0 -48 -9 -57 -37 -10 -31 27 -67 57 -57 12 4 33 7 47 6 25 -2 25 -2
20 66 -3 37 -9 73 -13 80 -5 6 -28 12 -53 12 -37 0 -44 -3 -44 -20z m70 -90
c0 -25 -4 -30 -25 -30 -20 0 -25 5 -25 24 0 13 6 27 13 29 28 12 37 6 37 -23z"/>
<path d="M4500 3025 c-21 -25 -4 -62 36 -75 27 -9 34 -17 32 -33 -4 -27 -30
-33 -51 -12 -20 20 -27 19 -27 -4 0 -23 49 -35 86 -21 21 8 25 15 22 42 -2 27
-10 37 -40 51 -21 10 -38 25 -38 32 0 21 31 27 51 9 18 -16 19 -16 19 4 0 19
-6 22 -39 22 -22 0 -44 -6 -51 -15z"/>
<path d="M4630 3020 c-15 -27 3 -59 41 -72 23 -8 29 -16 27 -32 -4 -26 -30
-32 -51 -11 -20 19 -27 19 -27 0 0 -20 44 -37 76 -29 13 4 29 15 35 26 10 19
4 58 -9 58 -4 0 -22 9 -40 20 -28 17 -32 23 -22 35 16 19 25 19 44 0 9 -9 17
-11 21 -5 11 18 -6 30 -45 30 -29 0 -42 -5 -50 -20z"/>
<path d="M4768 3028 c7 -7 12 -39 12 -74 0 -51 -3 -63 -17 -67 -10 -3 5 -5 32
-5 28 0 42 2 33 5 -15 4 -18 16 -18 79 0 74 0 74 -27 74 -21 0 -24 -3 -15 -12z"/>
<path d="M4883 3034 c-7 -3 -17 -21 -23 -40 -30 -90 54 -156 123 -96 24 21 24
103 -1 125 -17 16 -72 22 -99 11z m61 -10 c18 -7 31 -63 22 -98 -7 -29 -41
-43 -61 -26 -22 18 -20 106 3 119 21 13 17 12 36 5z"/>
<path d="M5028 3033 c8 -3 12 -27 12 -73 0 -45 -4 -70 -12 -73 -7 -3 5 -5 27
-5 22 0 34 2 28 5 -9 3 -13 27 -13 69 0 65 0 65 28 62 26 -3 27 -6 30 -62 2
-41 -1 -62 -10 -67 -8 -6 0 -9 22 -9 l36 0 -6 68 c-4 38 -10 74 -14 80 -3 6
-35 10 -74 10 -37 0 -61 -3 -54 -5z"/>
<path d="M5446 3018 c-22 -31 -20 -91 3 -119 23 -28 83 -32 109 -6 25 26 24
114 -2 133 -31 22 -92 18 -110 -8z m75 2 c15 -8 19 -21 19 -59 0 -53 -17 -77
-48 -66 -33 10 -39 84 -9 123 11 15 13 15 38 2z"/>
<path d="M5605 2959 l0 -79 35 1 c19 0 29 3 23 6 -9 3 -13 27 -13 69 0 65 0
65 28 62 26 -3 27 -6 30 -62 2 -41 -1 -62 -10 -67 -8 -6 2 -9 27 -9 25 0 35 3
27 9 -9 5 -12 26 -10 67 3 55 4 59 28 59 24 0 25 -4 28 -59 2 -41 -1 -62 -10
-67 -8 -6 1 -9 26 -9 30 0 36 3 28 13 -6 7 -12 42 -14 77 l-3 65 -110 2 -110
2 0 -80z"/>
<path d="M5868 3033 c16 -6 17 -213 1 -213 -5 0 -7 -4 -4 -10 3 -5 22 -10 41
-10 19 0 34 5 34 10 0 6 -7 10 -15 10 -10 0 -15 10 -15 31 0 25 3 29 19 24 52
-16 99 43 87 109 -9 47 -23 55 -96 54 -36 0 -59 -3 -52 -5z m108 -37 c15 -62
-11 -118 -50 -103 -12 5 -16 20 -16 67 0 60 0 60 30 60 23 0 31 -5 36 -24z"/>
<path d="M6038 3034 c8 -4 12 -28 12 -68 0 -50 4 -67 19 -80 11 -10 25 -15 31
-11 7 4 33 7 59 7 25 0 40 2 34 5 -9 3 -13 29 -13 79 l0 74 -32 0 c-27 -1 -30
-2 -15 -11 13 -8 17 -23 17 -69 0 -60 0 -60 -30 -60 -29 0 -29 0 -32 68 -3 67
-3 67 -33 69 -16 1 -24 0 -17 -3z"/>
<path d="M6326 3018 c-18 -26 -21 -80 -5 -109 13 -25 53 -41 85 -33 36 9 29
24 -11 24 -29 0 -37 5 -45 26 -6 14 -10 27 -10 30 0 2 23 4 50 4 46 0 50 2 50
24 0 34 -25 56 -65 56 -24 0 -39 -7 -49 -22z m74 -7 c15 -29 13 -31 -25 -31
-29 0 -33 3 -28 18 13 35 38 41 53 13z"/>
<path d="M6458 3033 c8 -3 12 -28 12 -73 0 -45 -4 -70 -12 -73 -7 -3 7 -5 32
-5 25 0 39 2 33 5 -9 3 -13 26 -13 65 0 59 1 60 25 56 19 -4 25 -1 25 12 0 13
-11 17 -57 17 -32 1 -52 -1 -45 -4z"/>
<path d="M6768 3033 c8 -3 12 -28 12 -73 0 -45 -4 -70 -12 -73 -7 -3 7 -5 32
-5 25 0 37 2 28 5 -15 4 -18 16 -18 63 0 49 3 58 20 63 11 3 20 1 20 -4 0 -5
5 -9 10 -9 6 0 10 9 10 20 0 23 -29 27 -48 8 -9 -9 -12 -9 -12 0 0 7 -12 12
-27 11 -16 0 -22 -3 -15 -6z"/>
<path d="M6904 3026 c-26 -19 -27 -107 -2 -133 26 -26 86 -22 109 6 23 28 25
88 3 119 -18 26 -79 30 -110 8z m91 -44 c12 -56 -27 -109 -60 -82 -22 18 -20
106 2 119 25 13 50 -3 58 -37z"/>
<path d="M7228 3033 c8 -3 12 -28 12 -73 0 -45 -4 -70 -12 -73 -7 -3 7 -5 32
-5 25 0 37 2 28 5 -15 4 -18 16 -18 63 0 49 3 58 20 63 11 3 20 1 20 -4 0 -5
5 -9 10 -9 6 0 10 9 10 20 0 23 -29 27 -48 8 -9 -9 -12 -9 -12 0 0 7 -12 12
-27 11 -16 0 -22 -3 -15 -6z"/>
<path d="M7360 3019 c0 -19 2 -19 22 -5 25 18 48 6 48 -25 0 -15 -7 -19 -33
-19 -38 0 -57 -15 -57 -46 0 -32 27 -56 54 -48 11 4 37 7 56 6 19 0 29 1 23 4
-9 4 -13 28 -13 68 0 72 -10 86 -62 86 -32 0 -38 -3 -38 -21z m70 -89 c0 -25
-4 -30 -25 -30 -14 0 -28 7 -31 15 -8 20 13 45 37 45 14 0 19 -7 19 -30z"/>
<path d="M7499 3027 c16 -16 14 -134 -1 -140 -7 -3 5 -5 27 -5 22 0 34 2 28 5
-9 3 -13 27 -13 69 0 65 0 65 28 62 26 -3 27 -6 30 -62 2 -41 -1 -62 -10 -67
-8 -5 5 -8 32 -8 25 1 37 3 27 6 -15 4 -17 14 -15 66 3 59 4 62 28 62 24 0 25
-4 28 -59 2 -41 -1 -62 -10 -67 -8 -5 5 -8 32 -8 25 0 39 3 33 6 -8 3 -13 25
-13 59 0 91 -2 92 -131 92 -81 0 -108 -3 -100 -11z"/>
<path d="M7765 2959 l0 -79 35 1 c19 0 29 3 23 6 -9 3 -13 27 -13 69 0 65 0
65 28 62 26 -3 27 -6 30 -62 2 -41 -1 -62 -10 -67 -8 -6 2 -9 27 -9 25 0 35 3
27 9 -9 5 -12 26 -10 67 3 55 4 59 28 59 24 0 25 -4 28 -59 2 -41 -1 -62 -10
-67 -8 -6 1 -9 26 -9 30 0 36 3 28 13 -6 7 -12 42 -14 77 l-3 65 -110 2 -110
2 0 -80z"/>
<path d="M8038 3028 c7 -7 12 -39 12 -74 0 -51 -3 -63 -17 -67 -10 -3 5 -5 32
-5 28 0 42 2 33 5 -15 4 -18 16 -18 79 0 74 0 74 -27 74 -21 0 -24 -3 -15 -12z"/>
<path d="M8128 3033 c8 -3 12 -27 12 -73 0 -45 -4 -70 -12 -73 -7 -3 5 -5 27
-5 22 0 34 2 28 5 -9 3 -13 27 -13 69 0 65 0 65 28 62 26 -3 27 -6 30 -62 2
-41 -1 -62 -10 -67 -8 -6 0 -9 22 -9 l36 0 -6 68 c-4 38 -10 74 -14 80 -3 6
-35 10 -74 10 -37 0 -61 -3 -54 -5z"/>
<path d="M3043 6658 c-34 -16 -48 -64 -48 -163 0 -102 15 -144 56 -159 76 -26
114 26 114 159 0 101 -14 147 -51 164 -30 13 -42 13 -71 -1z"/>
<path d="M2288 4830 c-27 -28 -30 -36 -25 -76 8 -74 53 -104 116 -78 80 33 43
184 -45 184 -9 0 -29 -14 -46 -30z"/>
<path d="M2801 2894 c-12 -15 -21 -34 -21 -44 0 -10 9 -29 21 -44 25 -32 86
-37 112 -8 25 28 22 87 -5 106 -35 25 -83 20 -107 -10z"/>
<path d="M2825 2730 c-49 -19 -65 -91 -29 -131 23 -26 104 -27 126 -1 62 71
-10 168 -97 132z"/>
<path d="M9548 2780 l-68 -100 70 0 70 0 0 100 c0 55 -1 100 -2 100 -2 -1 -33
-46 -70 -100z"/>
<path d="M6193 850 c-56 -23 -66 -98 -22 -154 36 -46 108 -32 128 26 29 82
-34 158 -106 128z"/>
</g>
</svg>
